<svg width="448" height="168" version="1.1" viewBox="0 0 448 168" xmlns="http://www.w3.org/2000/svg" xmlns:xlink="http://www.w3.org/1999/xlink">
 <defs>
  <clipPath id="a">
   <path d="m28.346 766.77h105.83v39.685h-105.83z">
   </path>
  </clipPath>
 </defs>
 <g stroke-width=".35278">
  <path d="m250.88 168h78.394v-168h-78.394z" fill="#b1161b">
  </path>
  <path d="m129.87 168h121.01v-168h-121.01z" fill="#f57615">
  </path>
  <path d="m329.27 168h8.9621v-168h-8.9621z" fill="#3068bb">
  </path>
  <path d="m4.8e-6 168h116.43v-168h-116.43z" fill="#ee2722">
  </path>
  <path d="m338.24 168h109.76v-168h-109.76z" fill="#329935">
  </path>
  <path d="m116.43 168h13.437v-168h-13.437z" fill="#211e1c">
  </path>
 </g>
 <g transform="matrix(4.2334 0 0 -4.2333 -120 3414)" clip-path="url(#a)" stroke-width=".083332">
  <g transform="translate(124.59 778.41)">
   <path d="m0 0h-4.121l-3.539 5.425h-1.676v-5.425h-3.632v17.275h3.632v-9.08h1.676l3.353 4.33h4.051l-4.261-5.494zm-15.319 7.1709v-7.171h-3.632v6.612c0 2.026-.931 2.957-2.538 2.957-1.746 0-3.003-1.071-3.003-3.376v-6.193h-3.632v9.732h-1.397v2.794h4.307l.187-1.956c.954 1.397 2.583 2.142 4.516 2.142 2.957 0 5.192-1.723 5.192-5.541m-19.487-.9083c0 2.165-1.397 3.469-3.189 3.469-1.817 0-3.214-1.304-3.214-3.469 0-2.166 1.397-3.469 3.214-3.469 1.792 0 3.189 1.303 3.189 3.469m3.562 6.263v-12.526h-3.469v1.444c-.907-1.095-2.235-1.63-3.911-1.63-3.539 0-6.264 2.514-6.264 6.449s2.725 6.449 6.264 6.449c1.537 0 2.84-.489 3.748-1.513v1.327zm-18.579-7.6834c0 1.374-1.024 2.026-2.98 2.026h-3.981v-4.028h3.981c1.956 0 2.98.606 2.98 2.002m-6.961 8.614v-3.841h3.329c1.84 0 2.84.652 2.84 1.932 0 1.281-1 1.909-2.84 1.909zm10.779-9.01c0-2.817-2.235-4.447-6.519-4.447h-8.008v13.224h-1.723v3.074h9.265c4.075 0 6.17-1.699 6.17-4.238 0-1.629-.837-2.886-2.165-3.585 1.817-.582 2.98-1.979 2.98-4.028m-17.367 2.7247v-7.171h-3.632v6.612c0 2.026-.908 2.957-2.375 2.957-1.63 0-2.77-1.047-2.77-3.283v-6.286h-3.633v6.612c0 2.026-.861 2.957-2.374 2.957-1.607 0-2.747-1.047-2.747-3.283v-6.286h-3.633v9.732h-1.397v2.794h4.308l.186-1.933c.907 1.374 2.468 2.119 4.307 2.119 1.746 0 3.236-.675 4.121-2.049 1.001 1.281 2.631 2.049 4.517 2.049 2.98 0 5.122-1.723 5.122-5.541" fill="#ffffff">
   </path>
  </g>
 </g>
</svg>