<svg version="1.1" id="Layer_1" xmlns:x="ns_extend;" xmlns:i="ns_ai;" xmlns:graph="ns_graphs;" xmlns="http://www.w3.org/2000/svg" xmlns:xlink="http://www.w3.org/1999/xlink" x="0px" y="0px" viewBox="0 0 294.2 65" style="enable-background:new 0 0 294.2 65;" xml:space="preserve">
 <style type="text/css">
  .st0{fill-rule:evenodd;clip-rule:evenodd;}
 </style>
 <metadata>
  <sfw xmlns="ns_sfw;">
   <slices>
   </slices>
   <sliceSourceBounds bottomLeftOrigin="true" height="65" width="294.2" x="-194.1" y="-231.6">
   </sliceSourceBounds>
  </sfw>
 </metadata>
 <g>
  <path class="st0" d="M200.7,0h11.6v64.5h-11.6V0z M294.2,27.2v-10h-11.9v-13h-11.6v47.5c0,4.4,1.1,7.7,3.3,9.9
		c2.2,2.2,5.5,3.3,10,3.3h10.2v-10h-7.5c-1.6,0-2.8-0.4-3.5-1.1c-0.6-0.6-1-2.3-1-4.1V27.2L294.2,27.2z M122.2,51.9l11.9-34.8h12.1
		l-17.2,47.3h-13.7L98.1,17.2h12.1L122.2,51.9z M251.9,40.8c0,3-0.5,5.6-1.3,7.7c-0.9,2.1-2.2,3.8-3.8,4.9c-1.6,1.1-3.6,1.6-5.9,1.6
		c-3.3,0-5.8-1.1-7.4-3.2c-1.6-2.2-2.5-5.4-2.5-9.7v-25h-11.6v26.2c0,4.1,0.5,7.6,1.5,10.3c1,2.8,2.4,5,4.1,6.7
		c1.7,1.7,3.7,2.9,6,3.6c2.2,0.7,4.6,1.1,7.1,1.1c3.6,0,6.6-0.7,8.9-1.9c2.1-1.2,3.8-2.6,5.2-4.1l1,5.5h10.1V17.2h-11.6V40.8z
		 M183,19.6c-3.6-2-8-3-12.8-3c-4.8,0-9.1,1-12.8,3c-3.7,2-6.6,4.9-8.6,8.5c-2,3.6-3,7.9-3,12.7c0,4.8,1,9,3,12.6
		c2,3.6,4.9,6.5,8.6,8.5c3.7,2,8,3,12.8,3c4.9,0,9.2-1,12.8-3c3.6-2,6.5-4.9,8.5-8.5c2-3.6,3-7.9,3-12.6c0-4.8-1-9.1-3-12.7
		C189.6,24.5,186.7,21.7,183,19.6z M176.9,53.4c-1.9,1.2-4.1,1.8-6.7,1.8c-2.6,0-4.8-0.6-6.7-1.8c-1.9-1.2-3.4-2.9-4.4-5.1
		c-1-2.2-1.6-4.7-1.6-7.5c0-2.9,0.5-5.4,1.6-7.5c1-2.1,2.5-3.9,4.4-5.1c1.9-1.2,4.1-1.9,6.7-1.9c2.6,0,4.9,0.6,6.7,1.9
		c1.9,1.2,3.3,3,4.4,5.1c1,2.1,1.6,4.7,1.6,7.5c0,2.8-0.5,5.3-1.6,7.5C180.3,50.5,178.8,52.2,176.9,53.4z M12,15.9H0v48.5h12V15.9z
		 M49.7,18.7C49.7,8.4,41.3,0,31,0H0v10.4h29.5c4.7,0,8.5,3.7,8.6,8.2c0,2.3-0.8,4.4-2.4,6C34.1,26.1,32,27,29.8,27H18.3
		c-0.4,0-0.7,0.3-0.7,0.7V37c0,0.2,0,0.3,0.1,0.4l19.5,27h14.3L31.9,37.3C41.7,36.9,49.7,28.6,49.7,18.7z M86.6,19.4
		c-3.5-1.8-7.6-2.8-12.2-2.8c-4.6,0-8.8,1-12.3,3c-3.6,2-6.3,4.9-8.3,8.5c-2,3.6-2.9,7.9-2.9,12.8c0,4.8,1,9,3,12.6
		c2,3.6,4.9,6.5,8.5,8.4c3.7,2,8.1,3,13.1,3c4,0,7.5-0.7,10.6-2.2c3.1-1.5,5.6-3.5,7.4-6c1.8-2.4,3-5,3.6-7.9l0.1-0.3H85.5l-0.1,0.2
		c-0.6,2.2-1.9,3.9-3.6,5.1c-1.9,1.3-4.3,2-7,2c-2.3,0-4.4-0.5-6.2-1.5c-1.8-1-3.2-2.4-4.2-4.1c-1-1.8-1.5-3.9-1.7-6.3v-0.4h34.7
		l0-0.2c0.1-0.7,0.2-1.4,0.2-2c0-0.7,0-1.3,0-2c-0.1-4.6-1.1-8.6-3-12C92.8,23.8,90,21.2,86.6,19.4z M82.4,28.3c2,1.7,3.2,4,3.7,7
		H63.2c0.3-1.9,0.9-3.6,1.9-5c1.1-1.5,2.4-2.6,4.1-3.4c1.6-0.8,3.4-1.2,5.3-1.2C77.7,25.7,80.3,26.6,82.4,28.3z">
  </path>
 </g>
</svg>