<svg version="1.1" id="Layer_1" xmlns="http://www.w3.org/2000/svg" xmlns:xlink="http://www.w3.org/1999/xlink" x="0px" y="0px" viewBox="0 0 99.9 70.9" style="enable-background:new 0 0 99.9 70.9;" xml:space="preserve">
 <style type="text/css">
  .st0{fill:#D91918;}
 </style>
 <g>
  <g>
   <path class="st0" d="M86.2,48.6c0,0,12.3,4.7,10.8,22.3h0.2c0.5-1.1,7.7-16.5-3.7-23.6c0,0,4.6-11.3-4-21.8
			c-4.4-5.3-12.4-10.4-27.1-8.3c0,0-18.2-30.3-46.3-10.4c0,0,2.1,5.7-2.3,11.7l0.1,0.1c4.3-2.5,24.6-21.4,46.7,1.2
			C60.5,19.7,95.4,16.5,86.2,48.6L86.2,48.6z">
   </path>
   <path class="st0" d="M42.2,50.5c0,0,9-10.9,19.1-0.9c0,0,6.9-8.3,17.5-3.5c4.8,2.2,11.9,9.3,4.1,24.3h-0.2c0,0,3.2-12.7-6.1-18.5
			c-3.6-2.4-10.5-2-17.3,5.5c0,0-3.2-6-8.7-4.3c0,0,0.7,8.8-4.8,17.8h-0.2C45.6,70.9,48.8,57.1,42.2,50.5L42.2,50.5z">
   </path>
   <path class="st0" d="M8.7,53.5c0,0,11.4-9.3,21-5c6.1,2.7,7.7,10.2,6.5,21.9h0.2c0.9-2,12.1-22.9-5-29.2
			c-3.2-1.2-7.8-1.6-15.9,1.4L7.8,20.7c0,0,12-16.3-7.8-20v0.1c1.9,1.1,13.7,8.6,0.5,17.5L8.7,53.5L8.7,53.5z">
   </path>
  </g>
 </g>
</svg>